<svg width="116px" height="52px" viewBox="0 0 116 52" version="1.1" xmlns="http://www.w3.org/2000/svg" xmlns:xlink="http://www.w3.org/1999/xlink">
    <defs>
        <radialGradient cx="50%" cy="50%" fx="50%" fy="50%" r="97.3134566%" id="radialGradient-1">
            <stop stop-color="#FFFFFF" stop-opacity="0.33556952" offset="0%"></stop>
            <stop stop-color="#9B9B9B" stop-opacity="0.22803442" offset="100%"></stop>
        </radialGradient>
        <path d="M26.6658879,31.2046784 C26.6658879,31.2046784 31.1542056,1.64511754e-15 56.5,0 C81.8457944,0 85.5420561,31.2046784 85.5420561,31.2046784 L26.6658879,31.2046784 Z" id="path-2"></path>
        <filter x="-50%" y="-50%" width="200%" height="200%" filterUnits="objectBoundingBox" id="filter-3">
            <feMorphology radius="0.5" operator="dilate" in="SourceAlpha" result="shadowSpreadOuter1"></feMorphology>
            <feOffset dx="0" dy="1" in="shadowSpreadOuter1" result="shadowOffsetOuter1"></feOffset>
            <feGaussianBlur stdDeviation="1.5" in="shadowOffsetOuter1" result="shadowBlurOuter1"></feGaussianBlur>
            <feComposite in="shadowBlurOuter1" in2="SourceAlpha" operator="out" result="shadowBlurOuter1"></feComposite>
            <feColorMatrix values="0 0 0 0 0.138525723   0 0 0 0 0.138525723   0 0 0 0 0.138525723  0 0 0 0.5 0" type="matrix" in="shadowBlurOuter1"></feColorMatrix>
        </filter>
        <path d="M26.6658879,31.2046784 C26.6658879,31.2046784 -14.5064395,40.467157 5.54439252,43.5789474 C25.5952245,46.6907377 84.0937267,46.7184335 106.399533,43.5789474 C128.705339,40.4394613 85.5420561,31.2046784 85.5420561,31.2046784 L26.6658879,31.2046784 Z" id="path-4"></path>
        <filter x="-50%" y="-50%" width="200%" height="200%" filterUnits="objectBoundingBox" id="filter-5">
            <feMorphology radius="0.5" operator="dilate" in="SourceAlpha" result="shadowSpreadOuter1"></feMorphology>
            <feOffset dx="0" dy="1" in="shadowSpreadOuter1" result="shadowOffsetOuter1"></feOffset>
            <feGaussianBlur stdDeviation="0.5" in="shadowOffsetOuter1" result="shadowBlurOuter1"></feGaussianBlur>
            <feComposite in="shadowBlurOuter1" in2="SourceAlpha" operator="out" result="shadowBlurOuter1"></feComposite>
            <feColorMatrix values="0 0 0 0 0.390837585   0 0 0 0 0.390837585   0 0 0 0 0.390837585  0 0 0 0.5 0" type="matrix" in="shadowBlurOuter1"></feColorMatrix>
        </filter>
    </defs>
    <g id="Page-1" stroke="none" stroke-width="1" fill="none" fill-rule="evenodd">
        <g id="Home" transform="translate(-253.000000, -215.000000)">
            <g id="Alien" transform="translate(255.000000, 218.000000)">
                <g id="Path-16">
                    <use fill="black" fill-opacity="1" filter="url(#filter-3)" xlink:href="#path-2"></use>
                    <use stroke="#D0FFFE" stroke-width="1" fill="url(#radialGradient-1)" fill-rule="evenodd" xlink:href="#path-2"></use>
                </g>
                <rect id="Rectangle-21" fill="#FF9EF8" x="74.1892523" y="23.1345029" width="1.32009346" height="4.57309942"></rect>
                <path d="M74.1892523,27.7076023 C74.1892523,27.7076023 75.0473131,26.8333333 75.7733645,27.7076023 C76.4994159,28.5818713 77.0934579,31.2046784 77.0934579,31.2046784 L74.1892523,31.2046784 L74.1892523,27.7076023 Z" id="Rectangle" fill="#FF9EF8"></path>
                <g id="Path-19">
                    <use fill="black" fill-opacity="1" filter="url(#filter-5)" xlink:href="#path-4"></use>
                    <use stroke="#D0FFFE" stroke-width="1" fill="#D0FFFE" fill-rule="evenodd" xlink:href="#path-4"></use>
                </g>
                <ellipse id="Oval-2" fill="#FF9EF8" transform="translate(73.729419, 20.934172) rotate(60.000000) translate(-73.729419, -20.934172) " cx="73.729419" cy="20.9341718" rx="5.28037383" ry="3.49707602"></ellipse>
                <ellipse id="Oval-3" fill="#D0FFFE" transform="translate(75.829891, 20.039642) rotate(60.000000) translate(-75.829891, -20.039642) " cx="75.8298913" cy="20.0396419" rx="1.98014019" ry="1.07602339"></ellipse>
                <ellipse id="Oval-4" fill="#D0FFFE" cx="71.9450935" cy="21.1169591" rx="0.396028037" ry="0.403508772"></ellipse>
                <path d="M77.0934579,24.748538 C77.0934579,24.748538 76.2106287,24.6048582 75.5093458,24.3450292 C74.8080629,24.0852003 74.1892523,23.4035088 74.1892523,23.4035088" id="Line" stroke="#D0FFFE" stroke-width="0.3" stroke-linecap="square"></path>
            </g>
        </g>
    </g>
</svg>
